<svg width="200" height="100" viewBox="0 0 200 100" fill="none" xmlns="http://www.w3.org/2000/svg">
<g filter="url(#filter0_d_10_2)">
<path d="M18.8 59.768H18.944C18.944 59.624 19.016 59.312 19.16 58.832L26 36.8H29.204L20.852 62H16.892L8.54 36.8H11.744L18.584 58.832C18.728 59.312 18.8 59.624 18.8 59.768ZM48.8786 59.48V62H33.3266V36.8H36.3506V59.48H48.8786ZM50.4758 62L59.1158 36.8H63.3638L72.1838 62H69.1598L67.2878 56.78H55.2998L53.4998 62H50.4758ZM61.3118 38.96H61.1678C61.1678 39.248 61.0838 39.596 60.9158 40.004L56.0558 54.44H66.5318L61.5638 40.004C61.3958 39.596 61.3118 39.248 61.3118 38.96ZM77.5883 62V36.8H90.9083C91.5323 36.8 92.1083 37.04 92.6363 37.52L96.0923 40.4C96.6683 40.88 96.9563 41.36 96.9563 41.84V56.96C96.9563 57.44 96.6683 57.92 96.0923 58.4L92.6363 61.28C92.1083 61.76 91.5323 62 90.9083 62H77.5883ZM93.9323 55.88V42.92C93.9323 42.44 93.6443 41.96 93.0683 41.48L91.3403 40.04C90.8123 39.56 90.2363 39.32 89.6123 39.32H80.6123V59.48H89.6123C90.2363 59.48 90.8123 59.24 91.3403 58.76L93.0683 57.32C93.6443 56.84 93.9323 56.36 93.9323 55.88ZM118.804 59.48V62H103.252V36.8H106.276V59.48H118.804ZM122.202 36.8H125.226V62H122.202V36.8ZM134.016 59.876V60.704C134.016 61.064 134.004 61.292 133.98 61.388C133.956 61.484 133.86 61.604 133.692 61.748C133.524 61.916 133.164 62 132.612 62H132.432C131.856 62 131.472 61.916 131.28 61.748C131.088 61.556 130.992 61.208 130.992 60.704V59.876C130.992 59.516 131.004 59.288 131.028 59.192C131.052 59.096 131.148 58.976 131.316 58.832C131.484 58.664 131.856 58.58 132.432 58.58H132.576C133.152 58.58 133.536 58.664 133.728 58.832C133.92 59.024 134.016 59.372 134.016 59.876ZM142.66 38.96L142.552 38.996C142.72 39.572 142.804 40.148 142.804 40.724V62H139.78V36.8H144.676L152.38 56.924C152.524 57.332 152.596 57.668 152.596 57.932H152.74C152.74 57.668 152.812 57.332 152.956 56.924L160.696 36.8H165.556V62H162.532V40.724C162.532 40.148 162.616 39.572 162.784 38.996L162.676 38.96L153.82 62H151.516C150.412 59.288 149.356 56.66 148.348 54.116C147.364 51.572 146.548 49.448 145.9 47.744C145.252 46.016 144.688 44.504 144.208 43.208C143.728 41.888 143.356 40.868 143.092 40.148C142.828 39.428 142.684 39.032 142.66 38.96ZM188.884 59.48V62H172.756V36.8H188.884V39.32H175.78V47.96H186.868V50.48H175.78V59.48H188.884Z" fill="#F7F7F7" fill-opacity="0.88" shape-rendering="crispEdges"/>
</g>
<defs>
<filter id="filter0_d_10_2" x="8.54004" y="36.8" width="181.344" height="26.2" filterUnits="userSpaceOnUse" color-interpolation-filters="sRGB">
<feFlood flood-opacity="0" result="BackgroundImageFix"/>
<feColorMatrix in="SourceAlpha" type="matrix" values="0 0 0 0 0 0 0 0 0 0 0 0 0 0 0 0 0 0 127 0" result="hardAlpha"/>
<feOffset dx="1" dy="1"/>
<feComposite in2="hardAlpha" operator="out"/>
<feColorMatrix type="matrix" values="0 0 0 0 0.275 0 0 0 0 0.275 0 0 0 0 0.275 0 0 0 1 0"/>
<feBlend mode="normal" in2="BackgroundImageFix" result="effect1_dropShadow_10_2"/>
<feBlend mode="normal" in="SourceGraphic" in2="effect1_dropShadow_10_2" result="shape"/>
</filter>
</defs>
</svg>
